<svg id="Layer_1" data-name="Layer 1" xmlns="http://www.w3.org/2000/svg" viewBox="0 0 387.6 85.42"><defs><style>.cls-1,.cls-3{fill:#44d62c;}.cls-1,.cls-2,.cls-4{fill-rule:evenodd;}.cls-4{fill:#fff;}</style></defs><path class="cls-1" d="M42.71,0A42.71,42.71,0,1,1,0,42.71H0A42.71,42.71,0,0,1,42.71,0Z" transform="translate(0 0)"/><path class="cls-2" d="M60.87,24.55a5.34,5.34,0,0,0-8.93,5.16l-5.78,5.78a8,8,0,0,0-9.76,2.3L28.59,35a5.34,5.34,0,1,0-1.67,5.06l7.79,2.75a8,8,0,0,0,7.83,7.87L45.3,58.5A5.34,5.34,0,1,0,52.84,58a5.41,5.41,0,0,0-2.54-1.24L47.55,49a8,8,0,0,0,2.33-9.79l5.79-5.79a5.34,5.34,0,0,0,5.2-8.9Z" transform="translate(0 0)"/><path class="cls-3" d="M110.55,21.87h-5.74v7.76h-2.25V9.36h7.5c4.25,0,6.47,1.87,6.47,6.15,0,3-1.17,5.07-3.72,5.89l3.9,8.23h-2.49Zm-.5-10.52h-5.24v8.52h5.27c3,0,4.13-1.82,4.13-4.36,0-2.8-1.31-4.16-4.15-4.16Z" transform="translate(0 0)"/><path class="cls-3" d="M121.92,29.63l5.56-20.27h4.92L138,29.63h-2.23l-1.46-5.21H125.6l-1.44,5.21Zm7.24-18.33-3.08,11.1h7.67l-3.08-11.1Z" transform="translate(0 0)"/><path class="cls-3" d="M143.16,11.35v-2h13.18V12l-10.6,15.06v.59h10.6v2H143.16v-2.6l10.57-15v-.64Z" transform="translate(0 0)"/><path class="cls-3" d="M163.42,29.63V9.36h12.33v2H165.67v7H174v2h-8.32v7.32h10.08v2H163.42Z" transform="translate(0 0)"/><path class="cls-3" d="M190.89,21.87h-5.73v7.76H182.9V9.36h7.5c4.25,0,6.47,1.87,6.47,6.15,0,3-1.17,5.07-3.72,5.89l3.9,8.23h-2.49Zm-.5-10.52h-5.23v8.52h5.27c3,0,4.13-1.82,4.13-4.36C194.55,12.71,193.24,11.35,190.39,11.35Z" transform="translate(0 0)"/><path class="cls-4" d="M126.1,42.94l-4.27-.44c-2.39-.22-5-.5-6.66-.5-5.55,0-8.32,1.83-8.32,6.27,0,5,2.66,5.83,9.38,7.32,7.71,1.78,11,3.61,11,10.32,0,8.43-4.72,11.76-12.26,11.76a74.77,74.77,0,0,1-7.77-.56c-1.5-.22-2.88-.33-4.38-.61l.44-3.55,4.27.5a69.47,69.47,0,0,0,7.21.5c5.55,0,8.21-2.39,8.21-7.71,0-4.27-2.27-5.44-8.54-6.77-7.93-1.66-11.93-3.55-11.93-10.93s4.88-10.32,12.37-10.32a69.49,69.49,0,0,1,7.49.55c1.39.17,2.72.33,4.11.55Z" transform="translate(0 0)"/><path class="cls-4" d="M149.34,61.08V77.23h-4.27V61.08L132.81,38.83h4.83l9.54,18,9.54-18h4.83Z" transform="translate(0 0)"/><path class="cls-4" d="M169.92,77.23V38.83h8l14.7,34.62h1.17V38.83H198v38.4h-7.85l-14.9-34.62h-1.09V77.23Z" transform="translate(0 0)"/><path class="cls-4" d="M207.16,77.23,217.7,38.84H227l10.54,38.39h-4.22l-2.77-9.88H214.16l-2.77,9.88ZM220.92,42.5l-5.83,21h14.54l-5.83-21Z" transform="translate(0 0)"/><path class="cls-4" d="M251,64.3V77.23h-4.3V38.83h14c8.38,0,12.26,4,12.26,12.37s-3.8,13.1-12.22,13.1Zm0-3.77h9.71c5.6,0,7.93-3.38,7.93-9.32s-2.33-8.6-7.93-8.6H251Z" transform="translate(0 0)"/><path class="cls-4" d="M304.23,42.94,300,42.5c-2.39-.22-5-.5-6.66-.5-5.55,0-8.32,1.83-8.32,6.27,0,5,2.66,5.83,9.38,7.32,7.71,1.78,11,3.61,11,10.32,0,8.43-4.68,11.8-12.2,11.8a74.77,74.77,0,0,1-7.77-.56c-1.5-.22-2.88-.33-4.38-.61l.44-3.55,4.27.5A69.47,69.47,0,0,0,293,74c5.55,0,8.21-2.39,8.21-7.71,0-4.27-2.28-5.44-8.54-6.77-7.93-1.66-11.93-3.55-11.93-10.93S285.55,38.26,293,38.26a69.49,69.49,0,0,1,7.49.55c1.39.17,2.72.33,4.11.55Z" transform="translate(0 0)"/><path class="cls-4" d="M315.88,77.23V38.83h23.36v3.78H320.16V55.87h15.76v3.72H320.16V73.46h19.09v3.77Z" transform="translate(0 0)"/><path class="cls-4" d="M364.25,39.83A43,43,0,0,1,375,38.28c8.66,0,11.71,3.22,11.71,9.71,0,5.71-4.38,8.21-5.44,8.88,3.72,1.33,6.33,3.38,6.33,9.32,0,7.38-3.61,11.54-11.87,11.54a62.07,62.07,0,0,1-12-1.44l.39-3.5A67.09,67.09,0,0,0,375.34,74c5.44-.06,7.93-2.94,7.93-7.66,0-5-3.38-7.32-7.54-7.32h-7.38V55.37h7.38c2.77,0,6.66-3,6.66-7.21s-2.05-6-7.49-6a56.47,56.47,0,0,0-10.21,1.11Z" transform="translate(0 0)"/></svg>